<?xml version="1.0" encoding="UTF-8" standalone="no"?>
<!DOCTYPE svg PUBLIC "-//W3C//DTD SVG 1.1//EN" "http://www.w3.org/Graphics/SVG/1.1/DTD/svg11.dtd">
<svg width="100%" height="100%" viewBox="0 0 1587 1083" version="1.1" xmlns="http://www.w3.org/2000/svg" xmlns:xlink="http://www.w3.org/1999/xlink" xml:space="preserve" xmlns:serif="http://www.serif.com/" style="fill-rule:evenodd;clip-rule:evenodd;stroke-linecap:round;stroke-linejoin:round;stroke-miterlimit:1.5;">
    <rect x="2.524" y="559.887" width="1581.23" height="520.14" style="fill:#eacfe4;stroke:#000;stroke-width:5.05px;"/>
    <rect x="2.524" y="2.524" width="864.378" height="387.741" style="fill:#cecece;stroke:#000;stroke-width:5.05px;"/>
    <path d="M235.921,62.295L258.817,62.295L258.817,67.911L229.297,67.911L229.297,21.255L258.457,21.255L258.457,26.871L235.921,26.871L235.921,41.415L255.649,41.415L254.929,46.887L235.921,46.887L235.921,62.295Z" style="fill-rule:nonzero;"/>
    <path d="M285.097,35.511C291.529,35.511 294.745,38.847 294.745,45.519L294.745,67.911L288.553,67.911L288.553,47.823C288.553,46.047 288.373,44.667 288.013,43.683C287.653,42.699 287.053,41.991 286.213,41.559C285.373,41.127 284.233,40.911 282.793,40.911C281.353,40.911 279.817,41.115 278.185,41.523C276.553,41.931 275.017,42.471 273.577,43.143L273.577,67.911L267.385,67.911L267.385,36.375L273.577,35.655L273.577,38.679C277.609,36.567 281.449,35.511 285.097,35.511Z" style="fill-rule:nonzero;"/>
    <path d="M331.249,17.655L331.249,67.911L325.633,67.911L325.345,65.607C323.617,66.615 321.865,67.395 320.089,67.947C318.313,68.499 316.657,68.775 315.121,68.775C312.337,68.775 309.961,68.139 307.993,66.867C306.025,65.595 304.525,63.771 303.493,61.395C302.461,59.019 301.945,56.223 301.945,53.007C301.945,49.359 302.653,46.215 304.069,43.575C305.485,40.935 307.417,38.931 309.865,37.563C312.313,36.195 315.097,35.511 318.217,35.511C320.281,35.511 322.561,35.823 325.057,36.447L325.057,18.375L331.249,17.655ZM308.569,52.863C308.569,56.463 309.289,59.127 310.729,60.855C312.169,62.583 314.209,63.447 316.849,63.447C319.633,63.447 322.369,62.655 325.057,61.071L325.057,41.487C322.897,40.767 320.785,40.407 318.721,40.407C316.753,40.407 315.013,40.851 313.501,41.739C311.989,42.627 310.789,44.007 309.901,45.879C309.013,47.751 308.569,50.079 308.569,52.863Z" style="fill-rule:nonzero;"/>
    <path d="M341.329,67.911L341.329,18.375L347.521,17.655L347.521,67.911L341.329,67.911Z" style="fill-rule:nonzero;"/>
    <path d="M383.305,53.223L361.345,53.223C361.393,56.823 362.269,59.439 363.973,61.071C365.677,62.703 367.873,63.519 370.561,63.519C372.481,63.519 374.149,63.279 375.565,62.799C376.981,62.319 378.553,61.575 380.281,60.567L382.657,64.959C378.721,67.503 374.593,68.775 370.273,68.775C365.665,68.775 361.981,67.491 359.221,64.923C356.461,62.355 355.081,58.287 355.081,52.719C355.081,49.551 355.657,46.671 356.809,44.079C357.961,41.487 359.677,39.411 361.957,37.851C364.237,36.291 367.033,35.511 370.345,35.511C373.129,35.511 375.505,36.075 377.473,37.203C379.441,38.331 380.929,39.879 381.937,41.847C382.945,43.815 383.449,46.071 383.449,48.615L383.305,53.223ZM370.345,40.335C367.849,40.335 365.893,41.079 364.477,42.567C363.061,44.055 362.137,46.095 361.705,48.687L377.401,48.687L377.401,48.399C377.401,45.711 376.789,43.695 375.565,42.351C374.341,41.007 372.601,40.335 370.345,40.335Z" style="fill-rule:nonzero;"/>
    <path d="M401.305,68.775C398.473,68.775 395.929,68.427 393.673,67.731C391.417,67.035 389.329,65.967 387.409,64.527L390.145,60.135C393.649,62.631 397.297,63.879 401.089,63.879C403.249,63.879 404.905,63.507 406.057,62.763C407.209,62.019 407.785,60.927 407.785,59.487C407.785,58.335 407.269,57.339 406.237,56.499C405.205,55.659 403.393,54.903 400.801,54.231L398.569,53.655C395.209,52.791 392.749,51.651 391.189,50.235C389.629,48.819 388.849,46.935 388.849,44.583C388.849,42.807 389.353,41.235 390.361,39.867C391.369,38.499 392.773,37.431 394.573,36.663C396.373,35.895 398.401,35.511 400.657,35.511C402.817,35.511 404.893,35.763 406.885,36.267C408.877,36.771 410.905,37.623 412.969,38.823L410.449,43.215C408.481,42.159 406.777,41.427 405.337,41.019C403.897,40.611 402.361,40.407 400.729,40.407C399.001,40.407 397.645,40.755 396.661,41.451C395.677,42.147 395.185,43.071 395.185,44.223C395.185,45.231 395.581,46.011 396.373,46.563C397.165,47.115 398.545,47.655 400.513,48.183L402.745,48.759C405.481,49.479 407.677,50.295 409.333,51.207C410.989,52.119 412.201,53.211 412.969,54.483C413.737,55.755 414.121,57.279 414.121,59.055C414.121,60.975 413.629,62.667 412.645,64.131C411.661,65.595 410.209,66.735 408.289,67.551C406.369,68.367 404.041,68.775 401.305,68.775Z" style="fill-rule:nonzero;"/>
    <path d="M431.617,68.775C428.785,68.775 426.241,68.427 423.985,67.731C421.729,67.035 419.641,65.967 417.721,64.527L420.457,60.135C423.961,62.631 427.609,63.879 431.401,63.879C433.561,63.879 435.217,63.507 436.369,62.763C437.521,62.019 438.097,60.927 438.097,59.487C438.097,58.335 437.581,57.339 436.549,56.499C435.517,55.659 433.705,54.903 431.113,54.231L428.881,53.655C425.521,52.791 423.061,51.651 421.501,50.235C419.941,48.819 419.161,46.935 419.161,44.583C419.161,42.807 419.665,41.235 420.673,39.867C421.681,38.499 423.085,37.431 424.885,36.663C426.685,35.895 428.713,35.511 430.969,35.511C433.129,35.511 435.205,35.763 437.197,36.267C439.189,36.771 441.217,37.623 443.281,38.823L440.761,43.215C438.793,42.159 437.089,41.427 435.649,41.019C434.209,40.611 432.673,40.407 431.041,40.407C429.313,40.407 427.957,40.755 426.973,41.451C425.989,42.147 425.497,43.071 425.497,44.223C425.497,45.231 425.893,46.011 426.685,46.563C427.477,47.115 428.857,47.655 430.825,48.183L433.057,48.759C435.793,49.479 437.989,50.295 439.645,51.207C441.301,52.119 442.513,53.211 443.281,54.483C444.049,55.755 444.433,57.279 444.433,59.055C444.433,60.975 443.941,62.667 442.957,64.131C441.973,65.595 440.521,66.735 438.601,67.551C436.681,68.367 434.353,68.775 431.617,68.775Z" style="fill-rule:nonzero;"/>
    <path d="M461.929,68.775C459.097,68.775 456.553,68.427 454.297,67.731C452.041,67.035 449.953,65.967 448.033,64.527L450.769,60.135C454.273,62.631 457.921,63.879 461.713,63.879C463.873,63.879 465.529,63.507 466.681,62.763C467.833,62.019 468.409,60.927 468.409,59.487C468.409,58.335 467.893,57.339 466.861,56.499C465.829,55.659 464.017,54.903 461.425,54.231L459.193,53.655C455.833,52.791 453.373,51.651 451.813,50.235C450.253,48.819 449.473,46.935 449.473,44.583C449.473,42.807 449.977,41.235 450.985,39.867C451.993,38.499 453.397,37.431 455.197,36.663C456.997,35.895 459.025,35.511 461.281,35.511C463.441,35.511 465.517,35.763 467.509,36.267C469.501,36.771 471.529,37.623 473.593,38.823L471.073,43.215C469.105,42.159 467.401,41.427 465.961,41.019C464.521,40.611 462.985,40.407 461.353,40.407C459.625,40.407 458.269,40.755 457.285,41.451C456.301,42.147 455.809,43.071 455.809,44.223C455.809,45.231 456.205,46.011 456.997,46.563C457.789,47.115 459.169,47.655 461.137,48.183L463.369,48.759C466.105,49.479 468.301,50.295 469.957,51.207C471.613,52.119 472.825,53.211 473.593,54.483C474.361,55.755 474.745,57.279 474.745,59.055C474.745,60.975 474.253,62.667 473.269,64.131C472.285,65.595 470.833,66.735 468.913,67.551C466.993,68.367 464.665,68.775 461.929,68.775Z" style="fill-rule:nonzero;"/>
    <path d="M492.241,68.775C489.409,68.775 486.865,68.427 484.609,67.731C482.353,67.035 480.265,65.967 478.345,64.527L481.081,60.135C484.585,62.631 488.233,63.879 492.025,63.879C494.185,63.879 495.841,63.507 496.993,62.763C498.145,62.019 498.721,60.927 498.721,59.487C498.721,58.335 498.205,57.339 497.173,56.499C496.141,55.659 494.329,54.903 491.737,54.231L489.505,53.655C486.145,52.791 483.685,51.651 482.125,50.235C480.565,48.819 479.785,46.935 479.785,44.583C479.785,42.807 480.289,41.235 481.297,39.867C482.305,38.499 483.709,37.431 485.509,36.663C487.309,35.895 489.337,35.511 491.593,35.511C493.753,35.511 495.829,35.763 497.821,36.267C499.813,36.771 501.841,37.623 503.905,38.823L501.385,43.215C499.417,42.159 497.713,41.427 496.273,41.019C494.833,40.611 493.297,40.407 491.665,40.407C489.937,40.407 488.581,40.755 487.597,41.451C486.613,42.147 486.121,43.071 486.121,44.223C486.121,45.231 486.517,46.011 487.309,46.563C488.101,47.115 489.481,47.655 491.449,48.183L493.681,48.759C496.417,49.479 498.613,50.295 500.269,51.207C501.925,52.119 503.137,53.211 503.905,54.483C504.673,55.755 505.057,57.279 505.057,59.055C505.057,60.975 504.565,62.667 503.581,64.131C502.597,65.595 501.145,66.735 499.225,67.551C497.305,68.367 494.977,68.775 492.241,68.775Z" style="fill-rule:nonzero;"/>
    <path d="M537.313,68.775C532.369,68.775 528.097,67.383 524.497,64.599L527.953,59.631C529.345,60.687 530.749,61.491 532.165,62.043C533.581,62.595 535.177,62.871 536.953,62.871C539.545,62.871 541.513,62.079 542.857,60.495C544.201,58.911 544.873,56.703 544.873,53.871L544.873,21.255L551.497,21.255L551.497,54.087C551.497,57.591 550.861,60.435 549.589,62.619C548.317,64.803 546.613,66.375 544.477,67.335C542.341,68.295 539.953,68.775 537.313,68.775Z" style="fill-rule:nonzero;"/>
    <path d="M574.753,35.511C578.449,35.511 581.221,36.351 583.069,38.031C584.917,39.711 585.841,42.351 585.841,45.951L585.841,67.911L580.225,67.911L579.865,65.175C576.553,67.575 572.737,68.775 568.417,68.775C566.593,68.775 564.961,68.427 563.521,67.731C562.081,67.035 560.965,66.051 560.173,64.779C559.381,63.507 558.985,62.055 558.985,60.423C558.985,57.783 559.921,55.587 561.793,53.835C563.665,52.083 566.161,50.799 569.281,49.983C572.401,49.167 575.857,48.711 579.649,48.615L579.649,47.031C579.649,44.871 579.217,43.299 578.353,42.315C577.489,41.331 576.025,40.839 573.961,40.839C570.457,40.839 566.809,42.087 563.017,44.583L560.281,40.263C564.889,37.095 569.713,35.511 574.753,35.511ZM565.609,59.775C565.609,61.023 565.981,61.959 566.725,62.583C567.469,63.207 568.585,63.519 570.073,63.519C573.337,63.519 576.529,62.559 579.649,60.639L579.649,53.151C575.473,53.343 572.089,53.991 569.497,55.095C566.905,56.199 565.609,57.759 565.609,59.775Z" style="fill-rule:nonzero;"/>
    <path d="M632.353,35.511C635.089,35.511 637.273,36.279 638.905,37.815C640.537,39.351 641.353,41.847 641.353,45.303L641.353,67.911L635.161,67.911L635.161,47.823C635.161,46.047 634.993,44.667 634.657,43.683C634.321,42.699 633.793,41.991 633.073,41.559C632.353,41.127 631.345,40.911 630.049,40.911C628.657,40.911 627.193,41.115 625.657,41.523C624.121,41.931 622.681,42.471 621.337,43.143C621.433,44.103 621.481,44.823 621.481,45.303L621.481,67.911L615.289,67.911L615.289,47.823C615.289,46.047 615.133,44.667 614.821,43.683C614.509,42.699 613.993,41.991 613.273,41.559C612.553,41.127 611.545,40.911 610.249,40.911C608.905,40.911 607.489,41.115 606.001,41.523C604.513,41.931 603.097,42.447 601.753,43.071L601.753,67.911L595.561,67.911L595.561,36.375L601.753,35.655L601.753,38.679C605.449,36.567 609.049,35.511 612.553,35.511C616.105,35.511 618.601,36.687 620.041,39.039C621.769,38.031 623.725,37.191 625.909,36.519C628.093,35.847 630.241,35.511 632.353,35.511Z" style="fill-rule:nonzero;"/>
    <path d="M54.956,607.614C58.268,608.43 60.716,609.894 62.3,612.006C63.884,614.118 64.676,616.494 64.676,619.134C64.676,621.63 64.04,623.862 62.768,625.83C61.496,627.798 59.588,629.346 57.044,630.474C54.5,631.602 51.404,632.166 47.756,632.166L30.908,632.166L30.908,585.51L47.18,585.51C50.444,585.51 53.252,586.026 55.604,587.058C57.956,588.09 59.756,589.506 61.004,591.306C62.252,593.106 62.876,595.182 62.876,597.534C62.876,599.79 62.24,601.806 60.968,603.582C59.696,605.358 57.692,606.702 54.956,607.614ZM37.532,590.982L37.532,605.67L46.244,605.67C49.172,605.67 51.548,605.058 53.372,603.834C55.196,602.61 56.108,600.654 56.108,597.966C56.108,596.622 55.772,595.422 55.1,594.366C54.428,593.31 53.432,592.482 52.112,591.882C50.792,591.282 49.196,590.982 47.324,590.982L37.532,590.982ZM47.9,626.694C51.356,626.694 53.852,625.974 55.388,624.534C56.924,623.094 57.692,621.246 57.692,618.99C57.692,616.542 56.876,614.598 55.244,613.158C53.612,611.718 51.188,610.998 47.972,610.998L37.532,610.998L37.532,626.694L47.9,626.694Z" style="fill-rule:nonzero;"/>
    <path d="M80.444,626.55L103.34,626.55L103.34,632.166L73.82,632.166L73.82,585.51L102.98,585.51L102.98,591.126L80.444,591.126L80.444,605.67L100.172,605.67L99.452,611.142L80.444,611.142L80.444,626.55Z" style="fill-rule:nonzero;"/>
    <path d="M133.688,585.51L151.22,631.734L151.22,632.166L144.319,632.166L139.431,618.846L119.559,618.846L114.727,632.166L108.092,632.166L108.092,631.734L125.624,585.51L133.688,585.51ZM121.578,613.374L137.418,613.374L129.512,591.774L121.578,613.374Z" style="fill-rule:nonzero;"/>
    <path d="M205.724,585.51L205.724,632.166L199.244,632.166L199.244,596.31C198.524,598.374 197.588,600.534 196.436,602.79L185.204,624.606L178.796,624.606L167.78,602.79C167.156,601.59 166.568,600.426 166.016,599.298C165.464,598.17 165.02,597.198 164.684,596.382L164.684,632.166L158.348,632.166L158.348,585.51L165.908,585.51L176.42,606.102C179.252,611.67 181.148,615.87 182.108,618.702C182.636,617.07 183.368,615.222 184.304,613.158C185.24,611.094 186.404,608.742 187.796,606.102L198.38,585.51L205.724,585.51Z" style="fill-rule:nonzero;"/>
    <path d="M525.23,1007.17C522.398,1007.17 519.95,1006.56 517.886,1005.34C515.822,1004.11 514.238,1002.34 513.134,1000.01C512.03,997.679 511.478,994.883 511.478,991.619C511.478,987.827 512.21,984.659 513.674,982.115C515.138,979.571 517.01,977.699 519.29,976.499C521.57,975.299 523.958,974.699 526.454,974.699C529.526,974.699 532.646,975.539 535.814,977.219L534.432,980.099C532.879,979.379 531.436,978.839 530.102,978.479C528.768,978.119 527.422,977.939 526.064,977.939C523.833,977.939 521.904,978.515 520.279,979.667C518.654,980.819 517.405,982.427 516.532,984.491C515.659,986.555 515.222,988.931 515.222,991.619C515.222,999.779 518.665,1003.86 525.55,1003.86C527.295,1003.86 528.943,1003.6 530.495,1003.07C532.047,1002.54 533.599,1001.77 535.15,1000.76L536.75,1003.5C533.294,1005.95 529.454,1007.17 525.23,1007.17Z" style="fill-rule:nonzero;"/>
    <path d="M556.478,974.699C557.15,974.699 557.798,974.735 558.422,974.807C559.046,974.879 559.742,975.011 560.51,975.203L559.574,979.019C558.182,978.587 556.958,978.371 555.902,978.371C554.222,978.371 552.65,978.863 551.186,979.847C549.722,980.831 548.462,982.451 547.406,984.707L547.406,1006.38L543.662,1006.38L543.662,975.419L547.406,974.987L547.406,980.099C548.606,978.275 549.986,976.919 551.546,976.031C553.106,975.143 554.75,974.699 556.478,974.699Z" style="fill-rule:nonzero;"/>
    <path d="M578.078,1007.17C574.958,1007.17 572.318,1006.45 570.158,1005.01C567.998,1003.57 566.366,1001.62 565.262,999.143C564.158,996.671 563.606,993.899 563.606,990.827C563.606,987.131 564.302,984.071 565.694,981.647C567.086,979.223 568.934,977.459 571.238,976.355C573.542,975.251 576.134,974.699 579.014,974.699C582.134,974.699 584.786,975.395 586.97,976.787C589.154,978.179 590.786,980.099 591.866,982.547C592.946,984.995 593.486,987.779 593.486,990.899C593.486,994.643 592.814,997.727 591.47,1000.15C590.126,1002.58 588.302,1004.35 585.998,1005.48C583.694,1006.61 581.054,1007.17 578.078,1007.17ZM578.509,1003.93C582.278,1003.93 585.092,1002.77 586.952,1000.44C588.812,998.111 589.742,994.907 589.742,990.827C589.742,986.891 588.837,983.747 587.026,981.395C585.215,979.043 582.45,977.867 578.73,977.867C574.863,977.867 572,979.031 570.14,981.359C568.28,983.687 567.35,986.843 567.35,990.827C567.35,994.811 568.268,997.991 570.103,1000.37C571.938,1002.74 574.74,1003.93 578.509,1003.93Z" style="fill-rule:nonzero;"/>
    <path d="M611.342,1007.17C608.702,1007.17 606.35,1006.84 604.286,1006.16C602.222,1005.49 600.23,1004.46 598.31,1003.07L600.123,1000.26C603.554,1002.75 607.251,1004 611.214,1004C613.726,1004 615.744,1003.5 617.266,1002.49C618.789,1001.48 619.55,1000.09 619.55,998.315C619.55,997.163 619.272,996.191 618.716,995.399C618.16,994.607 617.314,993.935 616.177,993.383C615.041,992.831 613.482,992.291 611.5,991.763L609.106,991.115C606.011,990.347 603.69,989.339 602.143,988.091C600.596,986.843 599.822,985.139 599.822,982.979C599.822,981.299 600.29,979.835 601.226,978.587C602.162,977.339 603.458,976.379 605.114,975.707C606.77,975.035 608.654,974.699 610.766,974.699C612.782,974.699 614.666,974.927 616.418,975.383C618.17,975.839 620.102,976.643 622.214,977.795L620.546,980.603C618.659,979.595 616.953,978.887 615.43,978.479C613.906,978.071 612.346,977.867 610.749,977.867C608.524,977.867 606.771,978.287 605.489,979.127C604.207,979.967 603.566,981.179 603.566,982.763C603.566,983.723 603.796,984.503 604.255,985.103C604.715,985.703 605.404,986.207 606.322,986.615C607.241,987.023 608.523,987.443 610.167,987.875L612.559,988.523C615.122,989.195 617.177,989.927 618.724,990.719C620.272,991.511 621.42,992.495 622.17,993.671C622.919,994.847 623.294,996.299 623.294,998.027C623.294,999.803 622.814,1001.39 621.854,1002.78C620.894,1004.17 619.514,1005.25 617.714,1006.02C615.914,1006.79 613.79,1007.17 611.342,1007.17Z" style="fill-rule:nonzero;"/>
    <path d="M640.79,1007.17C638.15,1007.17 635.798,1006.84 633.734,1006.16C631.67,1005.49 629.678,1004.46 627.758,1003.07L629.571,1000.26C633.002,1002.75 636.699,1004 640.662,1004C643.174,1004 645.192,1003.5 646.714,1002.49C648.237,1001.48 648.998,1000.09 648.998,998.315C648.998,997.163 648.72,996.191 648.164,995.399C647.608,994.607 646.762,993.935 645.625,993.383C644.489,992.831 642.93,992.291 640.948,991.763L638.554,991.115C635.459,990.347 633.138,989.339 631.591,988.091C630.044,986.843 629.27,985.139 629.27,982.979C629.27,981.299 629.738,979.835 630.674,978.587C631.61,977.339 632.906,976.379 634.562,975.707C636.218,975.035 638.102,974.699 640.214,974.699C642.23,974.699 644.114,974.927 645.866,975.383C647.618,975.839 649.55,976.643 651.662,977.795L649.994,980.603C648.107,979.595 646.401,978.887 644.878,978.479C643.354,978.071 641.794,977.867 640.197,977.867C637.972,977.867 636.219,978.287 634.937,979.127C633.655,979.967 633.014,981.179 633.014,982.763C633.014,983.723 633.244,984.503 633.703,985.103C634.163,985.703 634.852,986.207 635.77,986.615C636.689,987.023 637.971,987.443 639.615,987.875L642.007,988.523C644.57,989.195 646.625,989.927 648.172,990.719C649.72,991.511 650.868,992.495 651.618,993.671C652.367,994.847 652.742,996.299 652.742,998.027C652.742,999.803 652.262,1001.39 651.302,1002.78C650.342,1004.17 648.962,1005.25 647.162,1006.02C645.362,1006.79 643.238,1007.17 640.79,1007.17Z" style="fill-rule:nonzero;"/>
    <path d="M674.126,959.723C671.822,959.723 670.106,960.407 668.978,961.775C667.85,963.143 667.286,965.003 667.286,967.355L667.286,975.419L677.654,975.419L677.294,978.443L667.286,978.443L667.286,1006.38L663.542,1006.38L663.542,978.443L656.99,978.443L656.99,975.419L663.542,975.419L663.542,967.499C663.542,965.243 663.962,963.287 664.802,961.631C665.642,959.975 666.842,958.703 668.402,957.815C669.962,956.927 671.798,956.483 673.91,956.483C675.158,956.483 676.31,956.591 677.366,956.807C678.422,957.023 679.502,957.347 680.606,957.779L679.526,960.803C678.518,960.467 677.606,960.203 676.79,960.011C675.974,959.819 675.086,959.723 674.126,959.723Z" style="fill-rule:nonzero;"/>
    <path d="M694.358,974.699C701.078,974.699 704.438,978.107 704.438,984.923L704.438,1006.38L700.988,1006.38L700.694,1002.92C698.876,1004.36 696.951,1005.43 694.918,1006.13C692.885,1006.82 690.84,1007.17 688.783,1007.17C686.917,1007.17 685.278,1006.84 683.867,1006.16C682.456,1005.49 681.356,1004.54 680.566,1003.32C679.777,1002.1 679.382,1000.67 679.382,999.035C679.382,995.195 681.367,992.339 685.338,990.467C689.308,988.595 694.403,987.611 700.622,987.515L700.622,985.355C700.622,982.907 700.084,981.059 699.008,979.811C697.932,978.563 696.246,977.939 693.95,977.939C692.133,977.939 690.303,978.239 688.462,978.839C686.621,979.439 684.624,980.435 682.471,981.827L680.75,979.163C685.07,976.187 689.606,974.699 694.358,974.699ZM683.126,998.747C683.126,1000.38 683.649,1001.65 684.693,1002.56C685.738,1003.48 687.33,1003.93 689.469,1003.93C691.461,1003.93 693.356,1003.57 695.155,1002.85C696.953,1002.13 698.776,1001.1 700.622,999.755L700.622,990.467C695.422,990.563 691.206,991.271 687.974,992.591C684.742,993.911 683.126,995.963 683.126,998.747Z" style="fill-rule:nonzero;"/>
    <path d="M739.862,956.411L739.862,1006.38L736.343,1006.38L736.118,1003.86C734.401,1004.92 732.6,1005.73 730.715,1006.31C728.831,1006.88 727.006,1007.17 725.241,1007.17C722.426,1007.17 720.076,1006.51 718.192,1005.19C716.307,1003.87 714.912,1002.06 714.006,999.755C713.099,997.451 712.646,994.859 712.646,991.979C712.646,988.523 713.29,985.487 714.578,982.871C715.866,980.255 717.703,978.239 720.089,976.823C722.474,975.407 725.265,974.699 728.46,974.699C731.085,974.699 733.589,975.155 735.974,976.067L735.974,956.843L739.862,956.411ZM716.39,991.835C716.39,995.531 717.185,998.459 718.775,1000.62C720.365,1002.78 722.75,1003.86 725.929,1003.86C727.808,1003.86 729.566,1003.58 731.204,1003.03C732.842,1002.48 734.432,1001.75 735.974,1000.84L735.974,979.235C733.565,978.275 731.108,977.795 728.603,977.795C726.098,977.795 723.93,978.335 722.1,979.415C720.269,980.495 718.86,982.091 717.872,984.203C716.884,986.315 716.39,988.859 716.39,991.835Z" style="fill-rule:nonzero;"/>
    <path d="M775.286,987.731C775.286,989.123 775.238,990.275 775.142,991.187L752.246,991.187C752.294,995.603 753.218,998.831 755.018,1000.87C756.818,1002.91 759.326,1003.93 762.542,1003.93C764.078,1003.93 765.446,1003.77 766.646,1003.46C767.846,1003.15 768.89,1002.77 769.778,1002.31C770.666,1001.86 771.686,1001.24 772.838,1000.48L774.35,1003.21C772.574,1004.46 770.738,1005.43 768.842,1006.13C766.946,1006.82 764.822,1007.17 762.47,1007.17C758.198,1007.17 754.802,1005.85 752.282,1003.21C749.762,1000.57 748.502,996.491 748.502,990.971C748.502,988.235 749.03,985.631 750.086,983.159C751.142,980.687 752.75,978.659 754.91,977.075C757.07,975.491 759.758,974.699 762.974,974.699C765.71,974.699 768.002,975.275 769.85,976.427C771.698,977.579 773.066,979.127 773.954,981.071C774.842,983.015 775.286,985.235 775.286,987.731ZM762.895,977.651C760.751,977.651 758.941,978.155 757.464,979.163C755.987,980.171 754.832,981.467 753.998,983.051C753.165,984.635 752.629,986.363 752.39,988.235L771.542,988.235L771.542,987.659C771.542,984.491 770.828,982.031 769.398,980.279C767.969,978.527 765.802,977.651 762.895,977.651Z" style="fill-rule:nonzero;"/>
    <path d="M817.262,974.699C821.438,974.699 824.51,976.055 826.478,978.767C828.446,981.479 829.43,985.139 829.43,989.747C829.43,993.731 828.602,997.031 826.946,999.647C825.29,1002.26 823.154,1004.17 820.538,1005.37C817.922,1006.57 815.102,1007.17 812.078,1007.17C810.542,1007.17 808.97,1007.01 807.362,1006.7C805.754,1006.39 804.038,1005.9 802.214,1005.23L802.214,956.843L805.958,956.411L805.958,977.795C807.782,976.835 809.678,976.079 811.646,975.527C813.614,974.975 815.486,974.699 817.262,974.699ZM812.023,1003.93C816.309,1003.93 819.658,1002.72 822.069,1000.3C824.481,997.871 825.686,994.307 825.686,989.603C825.686,985.859 824.98,982.979 823.567,980.963C822.155,978.947 819.865,977.939 816.699,977.939C813.533,977.939 809.953,978.875 805.958,980.747L805.958,1003.14C808.004,1003.67 810.026,1003.93 812.023,1003.93Z" style="fill-rule:nonzero;"/>
    <path d="M862.118,987.731C862.118,989.123 862.07,990.275 861.974,991.187L839.078,991.187C839.126,995.603 840.05,998.831 841.85,1000.87C843.65,1002.91 846.158,1003.93 849.374,1003.93C850.91,1003.93 852.278,1003.77 853.478,1003.46C854.678,1003.15 855.722,1002.77 856.61,1002.31C857.498,1001.86 858.518,1001.24 859.67,1000.48L861.182,1003.21C859.406,1004.46 857.57,1005.43 855.674,1006.13C853.778,1006.82 851.654,1007.17 849.302,1007.17C845.03,1007.17 841.634,1005.85 839.114,1003.21C836.594,1000.57 835.334,996.491 835.334,990.971C835.334,988.235 835.862,985.631 836.918,983.159C837.974,980.687 839.582,978.659 841.742,977.075C843.902,975.491 846.59,974.699 849.806,974.699C852.542,974.699 854.834,975.275 856.682,976.427C858.53,977.579 859.898,979.127 860.786,981.071C861.674,983.015 862.118,985.235 862.118,987.731ZM849.727,977.651C847.583,977.651 845.773,978.155 844.296,979.163C842.819,980.171 841.664,981.467 840.83,983.051C839.997,984.635 839.461,986.363 839.222,988.235L858.374,988.235L858.374,987.659C858.374,984.491 857.66,982.031 856.23,980.279C854.801,978.527 852.634,977.651 849.727,977.651Z" style="fill-rule:nonzero;"/>
    <path d="M887.822,1005.44C885.518,1006.6 883.214,1007.17 880.91,1007.17C877.934,1007.17 875.666,1006.27 874.106,1004.47C872.546,1002.67 871.766,1000.16 871.766,996.947L871.766,978.443L865.142,978.443L865.142,975.419L871.766,975.419L871.766,968.147L875.51,967.571L875.51,975.419L886.958,975.419L886.526,978.443L875.51,978.443L875.51,996.371C875.51,998.867 875.966,1000.75 876.878,1002.02C877.79,1003.3 879.23,1003.93 881.198,1003.93C882.926,1003.93 884.774,1003.5 886.742,1002.63L887.822,1005.44Z" style="fill-rule:nonzero;"/>
    <path d="M934.766,975.419L934.766,975.779L924.47,1006.38L920.726,1006.38L913.598,983.771C913.118,982.331 912.734,980.963 912.446,979.667C912.254,980.819 911.894,982.187 911.366,983.771L904.238,1006.38L900.638,1006.38L890.054,975.779L890.054,975.419L894.014,975.419L901.358,998.099C901.886,999.731 902.27,1001.05 902.51,1002.06C902.798,1000.86 903.158,999.539 903.59,998.099L910.574,975.419L914.606,975.419L921.734,998.531C922.118,999.683 922.454,1000.91 922.742,1002.2C922.886,1001.24 923.198,1000.02 923.678,998.531L931.094,975.419L934.766,975.419Z" style="fill-rule:nonzero;"/>
    <path d="M964.286,987.731C964.286,989.123 964.238,990.275 964.142,991.187L941.246,991.187C941.294,995.603 942.218,998.831 944.018,1000.87C945.818,1002.91 948.326,1003.93 951.542,1003.93C953.078,1003.93 954.446,1003.77 955.646,1003.46C956.846,1003.15 957.89,1002.77 958.778,1002.31C959.666,1001.86 960.686,1001.24 961.838,1000.48L963.35,1003.21C961.574,1004.46 959.738,1005.43 957.842,1006.13C955.946,1006.82 953.822,1007.17 951.47,1007.17C947.198,1007.17 943.802,1005.85 941.282,1003.21C938.762,1000.57 937.502,996.491 937.502,990.971C937.502,988.235 938.03,985.631 939.086,983.159C940.142,980.687 941.75,978.659 943.91,977.075C946.07,975.491 948.758,974.699 951.974,974.699C954.71,974.699 957.002,975.275 958.85,976.427C960.698,977.579 962.066,979.127 962.954,981.071C963.842,983.015 964.286,985.235 964.286,987.731ZM951.895,977.651C949.751,977.651 947.941,978.155 946.464,979.163C944.987,980.171 943.832,981.467 942.998,983.051C942.165,984.635 941.629,986.363 941.39,988.235L960.542,988.235L960.542,987.659C960.542,984.491 959.828,982.031 958.398,980.279C956.969,978.527 954.802,977.651 951.895,977.651Z" style="fill-rule:nonzero;"/>
    <path d="M996.974,987.731C996.974,989.123 996.926,990.275 996.83,991.187L973.934,991.187C973.982,995.603 974.906,998.831 976.706,1000.87C978.506,1002.91 981.014,1003.93 984.23,1003.93C985.766,1003.93 987.134,1003.77 988.334,1003.46C989.534,1003.15 990.578,1002.77 991.466,1002.31C992.354,1001.86 993.374,1001.24 994.526,1000.48L996.038,1003.21C994.262,1004.46 992.426,1005.43 990.53,1006.13C988.634,1006.82 986.51,1007.17 984.158,1007.17C979.886,1007.17 976.49,1005.85 973.97,1003.21C971.45,1000.57 970.19,996.491 970.19,990.971C970.19,988.235 970.718,985.631 971.774,983.159C972.83,980.687 974.438,978.659 976.598,977.075C978.758,975.491 981.446,974.699 984.662,974.699C987.398,974.699 989.69,975.275 991.538,976.427C993.386,977.579 994.754,979.127 995.642,981.071C996.53,983.015 996.974,985.235 996.974,987.731ZM984.583,977.651C982.439,977.651 980.629,978.155 979.152,979.163C977.675,980.171 976.52,981.467 975.686,983.051C974.853,984.635 974.317,986.363 974.078,988.235L993.23,988.235L993.23,987.659C993.23,984.491 992.516,982.031 991.086,980.279C989.657,978.527 987.49,977.651 984.583,977.651Z" style="fill-rule:nonzero;"/>
    <path d="M1021.38,974.699C1024.31,974.699 1026.71,975.431 1028.58,976.895C1030.45,978.359 1031.39,980.915 1031.39,984.563L1031.39,1006.38L1027.65,1006.38L1027.65,986.075C1027.65,984.155 1027.42,982.607 1026.96,981.431C1026.51,980.255 1025.76,979.379 1024.73,978.803C1023.7,978.227 1022.27,977.939 1020.45,977.939C1018.72,977.939 1016.88,978.215 1014.94,978.767C1012.99,979.319 1011.13,980.003 1009.36,980.819L1009.36,1006.38L1005.61,1006.38L1005.61,975.419L1009.36,974.987L1009.36,978.011C1011.18,977.099 1013.14,976.319 1015.23,975.671C1017.31,975.023 1019.37,974.699 1021.38,974.699Z" style="fill-rule:nonzero;"/>
    <path d="M1076.46,974.699C1079.39,974.699 1081.79,975.431 1083.66,976.895C1085.53,978.359 1086.47,980.915 1086.47,984.563L1086.47,1006.38L1082.73,1006.38L1082.73,986.075C1082.73,984.155 1082.5,982.607 1082.04,981.431C1081.59,980.255 1080.84,979.379 1079.81,978.803C1078.78,978.227 1077.35,977.939 1075.53,977.939C1073.8,977.939 1071.96,978.215 1070.02,978.767C1068.07,979.319 1066.21,980.003 1064.44,980.819L1064.44,1006.38L1060.69,1006.38L1060.69,975.419L1064.44,974.987L1064.44,978.011C1066.26,977.099 1068.22,976.319 1070.31,975.671C1072.39,975.023 1074.45,974.699 1076.46,974.699Z" style="fill-rule:nonzero;"/>
    <path d="M1121.53,987.731C1121.53,989.123 1121.49,990.275 1121.39,991.187L1098.49,991.187C1098.54,995.603 1099.47,998.831 1101.27,1000.87C1103.07,1002.91 1105.57,1003.93 1108.79,1003.93C1110.33,1003.93 1111.69,1003.77 1112.89,1003.46C1114.09,1003.15 1115.14,1002.77 1116.03,1002.31C1116.91,1001.86 1117.93,1001.24 1119.09,1000.48L1120.6,1003.21C1118.82,1004.46 1116.99,1005.43 1115.09,1006.13C1113.19,1006.82 1111.07,1007.17 1108.72,1007.17C1104.45,1007.17 1101.05,1005.85 1098.53,1003.21C1096.01,1000.57 1094.75,996.491 1094.75,990.971C1094.75,988.235 1095.28,985.631 1096.33,983.159C1097.39,980.687 1099,978.659 1101.16,977.075C1103.32,975.491 1106.01,974.699 1109.22,974.699C1111.96,974.699 1114.25,975.275 1116.1,976.427C1117.95,977.579 1119.31,979.127 1120.2,981.071C1121.09,983.015 1121.53,985.235 1121.53,987.731ZM1109.14,977.651C1107,977.651 1105.19,978.155 1103.71,979.163C1102.24,980.171 1101.08,981.467 1100.25,983.051C1099.41,984.635 1098.88,986.363 1098.64,988.235L1117.79,988.235L1117.79,987.659C1117.79,984.491 1117.08,982.031 1115.65,980.279C1114.22,978.527 1112.05,977.651 1109.14,977.651Z" style="fill-rule:nonzero;"/>
    <path d="M1169.34,975.419L1169.34,975.779L1159.05,1006.38L1155.3,1006.38L1148.17,983.771C1147.69,982.331 1147.31,980.963 1147.02,979.667C1146.83,980.819 1146.47,982.187 1145.94,983.771L1138.81,1006.38L1135.21,1006.38L1124.63,975.779L1124.63,975.419L1128.59,975.419L1135.93,998.099C1136.46,999.731 1136.85,1001.05 1137.09,1002.06C1137.37,1000.86 1137.73,999.539 1138.17,998.099L1145.15,975.419L1149.18,975.419L1156.31,998.531C1156.69,999.683 1157.03,1000.91 1157.32,1002.2C1157.46,1001.24 1157.77,1000.02 1158.25,998.531L1165.67,975.419L1169.34,975.419Z" style="fill-rule:nonzero;"/>
    <path d="M1207,974.699C1207.67,974.699 1208.32,974.735 1208.94,974.807C1209.57,974.879 1210.26,975.011 1211.03,975.203L1210.09,979.019C1208.7,978.587 1207.48,978.371 1206.42,978.371C1204.74,978.371 1203.17,978.863 1201.71,979.847C1200.24,980.831 1198.98,982.451 1197.93,984.707L1197.93,1006.38L1194.18,1006.38L1194.18,975.419L1197.93,974.987L1197.93,980.099C1199.13,978.275 1200.51,976.919 1202.07,976.031C1203.63,975.143 1205.27,974.699 1207,974.699Z" style="fill-rule:nonzero;"/>
    <path d="M1220.1,966.851C1219.38,966.851 1218.75,966.575 1218.19,966.023C1217.64,965.471 1217.37,964.835 1217.37,964.115C1217.37,963.347 1217.64,962.687 1218.19,962.135C1218.75,961.583 1219.38,961.307 1220.1,961.307C1220.87,961.307 1221.53,961.583 1222.08,962.135C1222.63,962.687 1222.91,963.347 1222.91,964.115C1222.91,964.835 1222.63,965.471 1222.08,966.023C1221.53,966.575 1220.87,966.851 1220.1,966.851ZM1218.3,1006.38L1218.3,975.419L1222.05,974.987L1222.05,1006.38L1218.3,1006.38Z" style="fill-rule:nonzero;"/>
    <path d="M1246.53,959.723C1244.22,959.723 1242.51,960.407 1241.38,961.775C1240.25,963.143 1239.69,965.003 1239.69,967.355L1239.69,975.419L1250.05,975.419L1249.69,978.443L1239.69,978.443L1239.69,1006.38L1235.94,1006.38L1235.94,978.443L1229.39,978.443L1229.39,975.419L1235.94,975.419L1235.94,967.499C1235.94,965.243 1236.36,963.287 1237.2,961.631C1238.04,959.975 1239.24,958.703 1240.8,957.815C1242.36,956.927 1244.2,956.483 1246.31,956.483C1247.56,956.483 1248.71,956.591 1249.77,956.807C1250.82,957.023 1251.9,957.347 1253.01,957.779L1251.93,960.803C1250.92,960.467 1250.01,960.203 1249.19,960.011C1248.37,959.819 1247.49,959.723 1246.53,959.723Z" style="fill-rule:nonzero;"/>
    <path d="M1269.28,959.723C1266.97,959.723 1265.26,960.407 1264.13,961.775C1263,963.143 1262.44,965.003 1262.44,967.355L1262.44,975.419L1272.81,975.419L1272.45,978.443L1262.44,978.443L1262.44,1006.38L1258.69,1006.38L1258.69,978.443L1252.14,978.443L1252.14,975.419L1258.69,975.419L1258.69,967.499C1258.69,965.243 1259.11,963.287 1259.95,961.631C1260.79,959.975 1261.99,958.703 1263.55,957.815C1265.11,956.927 1266.95,956.483 1269.06,956.483C1270.31,956.483 1271.46,956.591 1272.52,956.807C1273.57,957.023 1274.65,957.347 1275.76,957.779L1274.68,960.803C1273.67,960.467 1272.76,960.203 1271.94,960.011C1271.13,959.819 1270.24,959.723 1269.28,959.723Z" style="fill-rule:nonzero;"/>
    <path d="M1287.42,1007.17C1284.78,1007.17 1282.43,1006.84 1280.37,1006.16C1278.3,1005.49 1276.31,1004.46 1274.39,1003.07L1276.2,1000.26C1279.63,1002.75 1283.33,1004 1287.29,1004C1289.81,1004 1291.82,1003.5 1293.35,1002.49C1294.87,1001.48 1295.63,1000.09 1295.63,998.315C1295.63,997.163 1295.35,996.191 1294.8,995.399C1294.24,994.607 1293.39,993.935 1292.26,993.383C1291.12,992.831 1289.56,992.291 1287.58,991.763L1285.19,991.115C1282.09,990.347 1279.77,989.339 1278.22,988.091C1276.68,986.843 1275.9,985.139 1275.9,982.979C1275.9,981.299 1276.37,979.835 1277.31,978.587C1278.24,977.339 1279.54,976.379 1281.19,975.707C1282.85,975.035 1284.73,974.699 1286.85,974.699C1288.86,974.699 1290.75,974.927 1292.5,975.383C1294.25,975.839 1296.18,976.643 1298.29,977.795L1296.63,980.603C1294.74,979.595 1293.03,978.887 1291.51,978.479C1289.99,978.071 1288.43,977.867 1286.83,977.867C1284.6,977.867 1282.85,978.287 1281.57,979.127C1280.29,979.967 1279.65,981.179 1279.65,982.763C1279.65,983.723 1279.88,984.503 1280.34,985.103C1280.8,985.703 1281.48,986.207 1282.4,986.615C1283.32,987.023 1284.6,987.443 1286.25,987.875L1288.64,988.523C1291.2,989.195 1293.26,989.927 1294.8,990.719C1296.35,991.511 1297.5,992.495 1298.25,993.671C1299,994.847 1299.37,996.299 1299.37,998.027C1299.37,999.803 1298.89,1001.39 1297.93,1002.78C1296.97,1004.17 1295.59,1005.25 1293.79,1006.02C1291.99,1006.79 1289.87,1007.17 1287.42,1007.17Z" style="fill-rule:nonzero;"/>
    <rect x="36.57" y="138.706" width="181.576" height="223.187" style="fill:#9ea3e7;stroke:#000;stroke-width:5.05px;"/>
    <rect x="243.68" y="138.706" width="181.576" height="223.187" style="fill:#8597dc;stroke:#000;stroke-width:5.05px;"/>
    <rect x="449.845" y="138.706" width="181.576" height="223.187" style="fill:#6290d6;stroke:#000;stroke-width:5.05px;"/>
    <path d="M830.383,739.013C831.418,739.013 832.452,738.993 833.486,738.952C936.034,734.984 976.301,772.539 1004.03,818.453L349.599,818.453L349.599,739.013L830.383,739.013Z" style="fill:#6290d6;stroke:#000;stroke-width:5.05px;"/>
    <rect x="656.009" y="138.706" width="181.576" height="223.187" style="fill:#49a4e7;stroke:#000;stroke-width:5.05px;"/>
    <path d="M815.535,305.128L815.967,305.128L815.967,312.76L797.751,326.224L797.751,333.136L815.967,333.136L815.967,339.76L769.311,339.76L769.311,324.568C769.311,320.92 769.887,317.836 771.039,315.316C772.191,312.796 773.799,310.9 775.863,309.628C777.927,308.356 780.327,307.72 783.063,307.72C785.271,307.72 787.311,308.14 789.183,308.98C791.055,309.82 792.675,311.08 794.043,312.76C795.411,314.44 796.407,316.528 797.031,319.024L815.535,305.128ZM792.279,333.136L792.279,325.576C792.279,321.976 791.499,319.252 789.939,317.404C788.379,315.556 786.183,314.632 783.351,314.632C780.615,314.632 778.527,315.484 777.087,317.188C775.647,318.892 774.927,321.4 774.927,324.712L774.927,333.136L792.279,333.136Z" style="fill-opacity:0.45;fill-rule:nonzero;"/>
    <path d="M815.967,297.928L769.311,297.928L769.311,291.304L815.967,291.304L815.967,297.928Z" style="fill-opacity:0.45;fill-rule:nonzero;"/>
    <path d="M774.927,250.336L774.927,272.872L790.623,272.872L790.623,253.216L796.239,253.936L796.239,272.872L815.967,272.872L815.967,279.496L769.311,279.496L769.311,250.336L774.927,250.336Z" style="fill-opacity:0.45;fill-rule:nonzero;"/>
    <path d="M774.927,213.184L774.927,235.72L790.623,235.72L790.623,216.064L796.239,216.784L796.239,235.72L815.967,235.72L815.967,242.344L769.311,242.344L769.311,213.184L774.927,213.184Z" style="fill-opacity:0.45;fill-rule:nonzero;"/>
    <path d="M799.623,157.096L805.239,157.096L805.239,163.576L815.967,163.576L815.967,170.416L805.239,170.416L805.239,191.728L802.431,191.728L769.311,178.192L769.311,170.56L799.623,183.664L799.623,170.416L784.935,169.264L784.935,163.576L799.623,163.576L799.623,157.096Z" style="fill-opacity:0.45;fill-rule:nonzero;"/>
    <path d="M1520.39,818.453L1520.39,897.892L1039.63,897.892C1038.59,897.893 1037.55,897.913 1036.5,897.955C956.884,901.055 895.705,880.184 865.957,818.453L1520.39,818.453Z" style="fill:#49a4e7;stroke:#000;stroke-width:5.05px;"/>
    <path d="M196.096,305.128L196.528,305.128L196.528,312.76L178.312,326.224L178.312,333.136L196.528,333.136L196.528,339.76L149.872,339.76L149.872,324.568C149.872,320.92 150.448,317.836 151.6,315.316C152.752,312.796 154.36,310.9 156.424,309.628C158.488,308.356 160.888,307.72 163.624,307.72C165.832,307.72 167.872,308.14 169.744,308.98C171.616,309.82 173.236,311.08 174.604,312.76C175.972,314.44 176.968,316.528 177.592,319.024L196.096,305.128ZM172.84,333.136L172.84,325.576C172.84,321.976 172.06,319.252 170.5,317.404C168.94,315.556 166.744,314.632 163.912,314.632C161.176,314.632 159.088,315.484 157.648,317.188C156.208,318.892 155.488,321.4 155.488,324.712L155.488,333.136L172.84,333.136Z" style="fill-opacity:0.45;fill-rule:nonzero;"/>
    <path d="M196.528,297.928L149.872,297.928L149.872,291.304L196.528,291.304L196.528,297.928Z" style="fill-opacity:0.45;fill-rule:nonzero;"/>
    <path d="M155.488,250.336L155.488,272.872L171.184,272.872L171.184,253.216L176.8,253.936L176.8,272.872L196.528,272.872L196.528,279.496L149.872,279.496L149.872,250.336L155.488,250.336Z" style="fill-opacity:0.45;fill-rule:nonzero;"/>
    <path d="M155.488,213.184L155.488,235.72L171.184,235.72L171.184,216.064L176.8,216.784L176.8,235.72L196.528,235.72L196.528,242.344L149.872,242.344L149.872,213.184L155.488,213.184Z" style="fill-opacity:0.45;fill-rule:nonzero;"/>
    <path d="M190.912,169.408L190.912,159.544L196.528,159.544L196.528,188.488L190.912,188.488L190.912,176.032L157,176.032L162.976,186.616L159.016,189.28L149.872,176.032L149.872,169.408L190.912,169.408Z" style="fill-opacity:0.45;fill-rule:nonzero;"/>
    <path d="M403.206,305.128L403.638,305.128L403.638,312.76L385.422,326.224L385.422,333.136L403.638,333.136L403.638,339.76L356.982,339.76L356.982,324.568C356.982,320.92 357.558,317.836 358.71,315.316C359.862,312.796 361.47,310.9 363.534,309.628C365.598,308.356 367.998,307.72 370.734,307.72C372.942,307.72 374.982,308.14 376.854,308.98C378.726,309.82 380.346,311.08 381.714,312.76C383.082,314.44 384.078,316.528 384.702,319.024L403.206,305.128ZM379.95,333.136L379.95,325.576C379.95,321.976 379.17,319.252 377.61,317.404C376.05,315.556 373.854,314.632 371.022,314.632C368.286,314.632 366.198,315.484 364.758,317.188C363.318,318.892 362.598,321.4 362.598,324.712L362.598,333.136L379.95,333.136Z" style="fill-opacity:0.45;fill-rule:nonzero;"/>
    <path d="M403.638,297.928L356.982,297.928L356.982,291.304L403.638,291.304L403.638,297.928Z" style="fill-opacity:0.45;fill-rule:nonzero;"/>
    <path d="M362.598,250.336L362.598,272.872L378.294,272.872L378.294,253.216L383.91,253.936L383.91,272.872L403.638,272.872L403.638,279.496L356.982,279.496L356.982,250.336L362.598,250.336Z" style="fill-opacity:0.45;fill-rule:nonzero;"/>
    <path d="M362.598,213.184L362.598,235.72L378.294,235.72L378.294,216.064L383.91,216.784L383.91,235.72L403.638,235.72L403.638,242.344L356.982,242.344L356.982,213.184L362.598,213.184Z" style="fill-opacity:0.45;fill-rule:nonzero;"/>
    <path d="M398.022,159.832L403.638,159.832L403.638,190.288L400.47,190.288L397.878,187.696C392.118,181.984 387.822,177.832 384.99,175.24C382.158,172.648 379.542,170.62 377.142,169.156C374.742,167.692 372.486,166.96 370.374,166.96C367.686,166.96 365.634,167.656 364.218,169.048C362.802,170.44 362.094,172.408 362.094,174.952C362.094,177.016 362.55,179.08 363.462,181.144C364.374,183.208 365.55,185.104 366.99,186.832L362.814,190.36C360.75,188.248 359.118,185.788 357.918,182.98C356.718,180.172 356.118,177.232 356.118,174.16C356.118,171.52 356.646,169.132 357.702,166.996C358.758,164.86 360.282,163.18 362.274,161.956C364.266,160.732 366.582,160.12 369.222,160.12C372.054,160.12 374.826,160.792 377.538,162.136C380.25,163.48 383.118,165.472 386.142,168.112C389.166,170.752 393.126,174.544 398.022,179.488L398.022,159.832Z" style="fill-opacity:0.45;fill-rule:nonzero;"/>
    <path d="M609.371,305.128L609.803,305.128L609.803,312.76L591.587,326.224L591.587,333.136L609.803,333.136L609.803,339.76L563.147,339.76L563.147,324.568C563.147,320.92 563.723,317.836 564.875,315.316C566.027,312.796 567.635,310.9 569.699,309.628C571.763,308.356 574.163,307.72 576.899,307.72C579.107,307.72 581.147,308.14 583.019,308.98C584.891,309.82 586.511,311.08 587.879,312.76C589.247,314.44 590.243,316.528 590.867,319.024L609.371,305.128ZM586.115,333.136L586.115,325.576C586.115,321.976 585.335,319.252 583.775,317.404C582.215,315.556 580.019,314.632 577.187,314.632C574.451,314.632 572.363,315.484 570.923,317.188C569.483,318.892 568.763,321.4 568.763,324.712L568.763,333.136L586.115,333.136Z" style="fill-opacity:0.45;fill-rule:nonzero;"/>
    <path d="M609.803,297.928L563.147,297.928L563.147,291.304L609.803,291.304L609.803,297.928Z" style="fill-opacity:0.45;fill-rule:nonzero;"/>
    <path d="M568.763,250.336L568.763,272.872L584.459,272.872L584.459,253.216L590.075,253.936L590.075,272.872L609.803,272.872L609.803,279.496L563.147,279.496L563.147,250.336L568.763,250.336Z" style="fill-opacity:0.45;fill-rule:nonzero;"/>
    <path d="M568.763,213.184L568.763,235.72L584.459,235.72L584.459,216.064L590.075,216.784L590.075,235.72L609.803,235.72L609.803,242.344L563.147,242.344L563.147,213.184L568.763,213.184Z" style="fill-opacity:0.45;fill-rule:nonzero;"/>
    <path d="M584.459,169.624C585.323,166.36 586.787,163.912 588.851,162.28C590.915,160.648 593.459,159.832 596.483,159.832C599.267,159.832 601.715,160.492 603.827,161.812C605.939,163.132 607.607,165.1 608.831,167.716C610.055,170.332 610.667,173.536 610.667,177.328C610.667,179.776 610.391,182.14 609.839,184.42C609.287,186.7 608.603,188.584 607.787,190.072L602.819,187.84C603.491,186.448 604.031,184.828 604.439,182.98C604.847,181.132 605.051,179.272 605.051,177.4C605.051,173.992 604.343,171.364 602.927,169.516C601.511,167.668 599.507,166.744 596.915,166.744C594.995,166.744 593.375,167.104 592.055,167.824C590.735,168.544 589.727,169.78 589.031,171.532C588.335,173.284 587.987,175.696 587.987,178.768L587.987,181.936L582.875,181.504L582.875,176.104C582.059,173.896 581.231,172.168 580.391,170.92C579.551,169.672 578.603,168.772 577.547,168.22C576.491,167.668 575.195,167.392 573.659,167.392C572.555,167.392 571.547,167.704 570.635,168.328C569.723,168.952 568.991,169.888 568.439,171.136C567.887,172.384 567.611,173.896 567.611,175.672C567.611,177.496 568.031,179.404 568.871,181.396C569.711,183.388 570.803,185.248 572.147,186.976L568.259,190.36C566.387,188.2 564.923,185.848 563.867,183.304C562.811,180.76 562.283,178.144 562.283,175.456C562.283,172.288 562.787,169.6 563.795,167.392C564.803,165.184 566.171,163.528 567.899,162.424C569.627,161.32 571.571,160.768 573.731,160.768C576.227,160.768 578.387,161.548 580.211,163.108C582.035,164.668 583.451,166.84 584.459,169.624Z" style="fill-opacity:0.45;fill-rule:nonzero;"/>
    <path d="M406.365,800.403L406.365,800.835L398.733,800.835L385.269,782.619L378.357,782.619L378.357,800.835L371.733,800.835L371.733,754.179L386.925,754.179C390.573,754.179 393.657,754.755 396.177,755.907C398.697,757.059 400.593,758.667 401.865,760.731C403.137,762.795 403.773,765.195 403.773,767.931C403.773,770.139 403.353,772.179 402.513,774.051C401.673,775.923 400.413,777.543 398.733,778.911C397.053,780.279 394.965,781.275 392.469,781.899L406.365,800.403ZM378.357,777.147L385.917,777.147C389.517,777.147 392.241,776.367 394.089,774.807C395.937,773.247 396.861,771.051 396.861,768.219C396.861,765.483 396.009,763.395 394.305,761.955C392.601,760.515 390.093,759.795 386.781,759.795L378.357,759.795L378.357,777.147Z" style="fill-opacity:0.45;fill-rule:nonzero;"/>
    <rect x="413.565" y="754.179" width="6.624" height="46.656" style="fill-opacity:0.45;fill-rule:nonzero;"/>
    <path d="M461.157,759.795L438.621,759.795L438.621,775.491L458.277,775.491L457.557,781.107L438.621,781.107L438.621,800.835L431.997,800.835L431.997,754.179L461.157,754.179L461.157,759.795Z" style="fill-opacity:0.45;fill-rule:nonzero;"/>
    <path d="M498.309,759.795L475.773,759.795L475.773,775.491L495.429,775.491L494.709,781.107L475.773,781.107L475.773,800.835L469.149,800.835L469.149,754.179L498.309,754.179L498.309,759.795Z" style="fill-opacity:0.45;fill-rule:nonzero;"/>
    <path d="M541.869,775.491C545.133,776.355 547.581,777.819 549.213,779.883C550.845,781.947 551.661,784.491 551.661,787.515C551.661,790.299 551.001,792.747 549.681,794.859C548.361,796.971 546.393,798.639 543.777,799.863C541.161,801.087 537.957,801.699 534.165,801.699C531.717,801.699 529.353,801.423 527.073,800.871C524.793,800.319 522.909,799.635 521.421,798.819L523.653,793.851C525.045,794.523 526.665,795.063 528.513,795.471C530.361,795.879 532.221,796.083 534.093,796.083C537.501,796.083 540.129,795.375 541.977,793.959C543.825,792.543 544.749,790.539 544.749,787.947C544.749,786.027 544.389,784.407 543.669,783.087C542.949,781.767 541.713,780.759 539.961,780.063C538.209,779.367 535.797,779.019 532.725,779.019L529.557,779.019L529.989,773.907L535.389,773.907C537.597,773.091 539.325,772.263 540.573,771.423C541.821,770.583 542.721,769.635 543.273,768.579C543.825,767.523 544.101,766.227 544.101,764.691C544.101,763.587 543.789,762.579 543.165,761.667C542.541,760.755 541.605,760.023 540.357,759.471C539.109,758.919 537.597,758.643 535.821,758.643C533.997,758.643 532.089,759.063 530.097,759.903C528.105,760.743 526.245,761.835 524.517,763.179L521.133,759.291C523.293,757.419 525.645,755.955 528.189,754.899C530.733,753.843 533.349,753.315 536.037,753.315C539.205,753.315 541.893,753.819 544.101,754.827C546.309,755.835 547.965,757.203 549.069,758.931C550.173,760.659 550.725,762.603 550.725,764.763C550.725,767.259 549.945,769.419 548.385,771.243C546.825,773.067 544.653,774.483 541.869,775.491Z" style="fill-opacity:0.45;fill-rule:nonzero;"/>
    <path d="M1353.97,879.201L1353.97,879.633L1346.33,879.633L1332.87,861.417L1325.96,861.417L1325.96,879.633L1319.33,879.633L1319.33,832.977L1334.53,832.977C1338.17,832.977 1341.26,833.553 1343.78,834.705C1346.3,835.857 1348.19,837.465 1349.47,839.529C1350.74,841.593 1351.37,843.993 1351.37,846.729C1351.37,848.937 1350.95,850.977 1350.11,852.849C1349.27,854.721 1348.01,856.341 1346.33,857.709C1344.65,859.077 1342.57,860.073 1340.07,860.697L1353.97,879.201ZM1325.96,855.945L1333.52,855.945C1337.12,855.945 1339.84,855.165 1341.69,853.605C1343.54,852.045 1344.46,849.849 1344.46,847.017C1344.46,844.281 1343.61,842.193 1341.91,840.753C1340.2,839.313 1337.69,838.593 1334.38,838.593L1325.96,838.593L1325.96,855.945Z" style="fill-opacity:0.45;fill-rule:nonzero;"/>
    <rect x="1361.17" y="832.977" width="6.624" height="46.656" style="fill-opacity:0.45;fill-rule:nonzero;"/>
    <path d="M1408.76,838.593L1386.22,838.593L1386.22,854.289L1405.88,854.289L1405.16,859.905L1386.22,859.905L1386.22,879.633L1379.6,879.633L1379.6,832.977L1408.76,832.977L1408.76,838.593Z" style="fill-opacity:0.45;fill-rule:nonzero;"/>
    <path d="M1445.91,838.593L1423.37,838.593L1423.37,854.289L1443.03,854.289L1442.31,859.905L1423.37,859.905L1423.37,879.633L1416.75,879.633L1416.75,832.977L1445.91,832.977L1445.91,838.593Z" style="fill-opacity:0.45;fill-rule:nonzero;"/>
    <path d="M1502,863.289L1502,868.905L1495.52,868.905L1495.52,879.633L1488.68,879.633L1488.68,868.905L1467.37,868.905L1467.37,866.097L1480.9,832.977L1488.53,832.977L1475.43,863.289L1488.68,863.289L1489.83,848.601L1495.52,848.601L1495.52,863.289L1502,863.289Z" style="fill-opacity:0.45;fill-rule:nonzero;"/>
    <path d="M1168.49,844.947C1202.36,800.233 1223.57,728.373 1218.96,663.298C1215.86,619.558 1201.09,578.847 1170.25,551.797C1116.62,504.756 1002.47,481.005 935.285,474.957C898.09,471.609 840.64,475.811 791.02,468.92C756.88,464.179 726.434,454.101 708.064,433.46C694.411,418.12 692.282,395.454 696.19,371.37C701.785,336.894 719.528,299.5 729.541,278.682C730.557,276.569 733.096,275.679 735.209,276.695C737.321,277.711 738.211,280.251 737.195,282.363C727.43,302.668 710.031,339.105 704.574,372.73C701.115,394.048 702.325,414.235 714.409,427.814C731.589,447.117 760.26,456.073 792.188,460.507C841.668,467.378 898.957,463.159 936.046,466.497C1004.66,472.674 1121.08,497.373 1175.85,545.411C1208.33,573.896 1224.17,616.639 1227.43,662.698C1232.18,729.672 1210.3,803.578 1175.51,849.744L1183.85,855.445L1159.52,868.979L1158.15,837.881L1168.49,844.947Z" style="stroke:#fff;stroke-width:3.46px;stroke-linecap:butt;stroke-miterlimit:2;"/>
    <rect x="405.321" y="694.516" width="14.526" height="32.421" style="fill:#ff2251;stroke:#ff2f4e;stroke-width:3.46px;"/>
    <rect x="996.048" y="694.516" width="14.526" height="32.421" style="fill:#ff2251;stroke:#ff2f4e;stroke-width:3.46px;"/>
    <rect x="858.629" y="694.516" width="14.526" height="32.421" style="fill:#ff2251;stroke:#ff2f4e;stroke-width:3.46px;"/>
    <rect x="709.158" y="694.516" width="14.526" height="32.421" style="fill:#ff2251;stroke:#ff2f4e;stroke-width:3.46px;"/>
    <rect x="1431.83" y="694.516" width="14.526" height="32.421" style="fill:#ff2251;stroke:#ff2f4e;stroke-width:3.46px;"/>
    <rect x="1291.41" y="694.516" width="14.526" height="32.421" style="fill:#ff2251;stroke:#ff2f4e;stroke-width:3.46px;"/>
    <rect x="1144.94" y="694.516" width="14.526" height="32.421" style="fill:#ff2251;stroke:#ff2f4e;stroke-width:3.46px;"/>
    <rect x="560.266" y="694.516" width="14.526" height="32.421" style="fill:#ff2251;stroke:#ff2f4e;stroke-width:3.46px;"/>
    <path d="M865.957,912.251L865.957,643.149" style="fill:none;stroke:#ff2f4e;stroke-width:3.46px;"/>
    <path d="M1003.96,912.251L1003.96,643.149" style="fill:none;stroke:#ff2f4e;stroke-width:3.46px;"/>
</svg>
